REM MD5 f80e6885712a7f16081732d20880c4ec
FILE "Play-Pre Vol. 16 (Japan) (Disc 1).bin" BINARY
  TRACK 01 MODE2/2352
    INDEX 01 00:00:00
  TRACK 02 AUDIO
    INDEX 00 46:05:30
    INDEX 01 46:07:30
  TRACK 03 AUDIO
    INDEX 00 46:16:12
    INDEX 01 46:18:12
  TRACK 04 AUDIO
    INDEX 00 47:07:73
    INDEX 01 47:09:73
REM LEADOUT 51:10:41
